<svg width="52" height="51" viewBox="0 0 52 51" fill="none" xmlns="http://www.w3.org/2000/svg">
<g clip-path="url(#clip0_128_13)">
<path d="M25.9998 0C40.3574 0 52 11.6906 52 26.1122C52 37.6493 44.5501 47.4372 34.2195 50.89C32.9201 51.1317 32.443 50.3236 32.443 49.6339C32.443 49.0112 32.4671 46.9543 32.4783 44.7723C39.7116 46.3519 41.2379 41.6914 41.2379 41.6914C42.4206 38.6732 44.1248 37.8707 44.1248 37.8707C46.4838 36.25 43.9469 36.2833 43.9469 36.2833C41.3361 36.4675 39.9613 38.9742 39.9613 38.9742C37.6424 42.9662 33.8789 41.8121 32.3952 41.1449C32.1619 39.4572 31.488 38.3052 30.7445 37.6532C36.5195 36.9929 42.5903 34.7539 42.5903 24.7484C42.5903 21.8975 41.5746 19.5682 39.9114 17.7395C40.1813 17.0818 41.0713 14.426 39.6595 10.8292C39.6595 10.8292 37.4762 10.1274 32.5076 13.5058C30.4336 12.9272 28.2094 12.6371 25.9998 12.6272C23.7902 12.6371 21.5642 12.9272 19.4864 13.5058C14.5238 10.1274 12.3435 10.8292 12.3435 10.8292C10.9283 14.426 11.8187 17.0818 12.0886 17.7395C10.4215 19.5682 9.41274 21.8975 9.41274 24.7484C9.41274 34.7777 15.4952 36.986 21.2848 37.6324C20.3522 38.4427 19.5213 40.0318 19.5213 42.468C19.5213 45.9619 19.5514 48.7738 19.5514 49.6339C19.5514 50.3288 19.0834 51.143 17.7655 50.8866C7.44038 47.4299 0 37.6454 0 26.1122C0 11.6906 11.6409 0 25.9998 0ZM42.2621 37.1974C42.3193 37.3271 42.5226 37.366 42.7077 37.277C42.8963 37.1918 43.0022 37.0149 42.9411 36.8848C42.8851 36.7512 42.6814 36.714 42.4933 36.8035C42.3043 36.8887 42.1966 37.0672 42.2621 37.1974ZM40.9832 38.3435C41.1072 38.4589 41.3496 38.4053 41.514 38.2228C41.6841 38.0408 41.716 37.7974 41.5902 37.6802C41.4624 37.5647 41.2273 37.6188 41.0568 37.8008C40.8867 37.985 40.8536 38.2267 40.9832 38.3435ZM40.1058 39.8099C40.2651 39.921 40.5256 39.8168 40.6866 39.5846C40.8459 39.3524 40.8459 39.0739 40.6831 38.9623C40.5217 38.8508 40.2651 38.9511 40.1019 39.1816C39.943 39.4177 39.943 39.6961 40.1058 39.8099ZM38.6219 41.5081C38.7644 41.6659 39.068 41.6236 39.2901 41.4082C39.5175 41.1977 39.5808 40.8989 39.4378 40.741C39.2936 40.5828 38.9883 40.6273 38.7644 40.8409C38.5388 41.0511 38.4699 41.352 38.6219 41.5081ZM36.7042 42.0814C36.767 42.286 37.0594 42.3789 37.3539 42.292C37.6479 42.2025 37.8404 41.963 37.781 41.7563C37.7198 41.5504 37.4262 41.4536 37.1296 41.5465C36.8359 41.6356 36.643 41.8734 36.7042 42.0814ZM34.5217 42.3246C34.5144 42.54 34.7641 42.7185 35.0733 42.7224C35.3841 42.7294 35.6356 42.5551 35.639 42.3432C35.639 42.1257 35.3949 41.9489 35.084 41.9437C34.7749 41.9376 34.5217 42.1106 34.5217 42.3246ZM32.3777 42.2421C32.3407 42.4522 32.5555 42.668 32.8625 42.7255C33.1643 42.7809 33.4437 42.6511 33.4821 42.4427C33.5195 42.2274 33.3008 42.0116 32.9994 41.9558C32.692 41.9022 32.4169 42.0285 32.3777 42.2421Z" fill="white"/>
</g>
<defs>
<clipPath id="clip0_128_13">
<rect width="52" height="51" fill="white" transform="matrix(-1 0 0 1 52 0)"/>
</clipPath>
</defs>
</svg>
